<svg xmlns="http://www.w3.org/2000/svg" viewBox="0 0 64 64">
  <path d="M17 26h28v19c0 9-28 9-28 0Z" fill="#63C7B2" stroke="#F7FBFF" stroke-width="3" stroke-linejoin="round"/>
  <path d="M45 30h5c9 0 8 14 0 14h-5" fill="none" stroke="#F7FBFF" stroke-width="3" stroke-linecap="round"/>
  <path d="M17 26c4-8 24-8 28 0-6 5-22 5-28 0Z" fill="#503A63" stroke="#F7FBFF" stroke-width="3" stroke-linejoin="round"/>
  <path d="M24 17c-4 4 4 5 0 9m9-10c-4 4 4 5 0 9m9-8c-4 4 4 5 0 9" fill="none" stroke="#FFD85A" stroke-width="3" stroke-linecap="round"/>
  <path d="M24 37c4 3 12 3 16 0" fill="none" stroke="#F7FBFF" stroke-width="2.5" stroke-linecap="round"/>
</svg>
